<svg width="348" height="345" viewBox="0 0 348 345" fill="none" xmlns="http://www.w3.org/2000/svg">
<path d="M330.328 60.4801H17.6719C16.41 60.4801 15.1999 60.9771 14.3076 61.8616C13.4153 62.7462 12.9141 63.9459 12.9141 65.1969V279.803C12.9141 281.054 13.4153 282.254 14.3076 283.138C15.1999 284.023 16.41 284.52 17.6719 284.52H330.328C331.59 284.52 332.8 284.023 333.692 283.138C334.585 282.254 335.086 281.054 335.086 279.803V65.1969C335.086 63.9459 334.585 62.7462 333.692 61.8616C332.8 60.9771 331.59 60.4801 330.328 60.4801ZM325.57 151.611H303.983C298.395 151.611 293.036 153.812 289.084 157.729C285.133 161.647 282.913 166.96 282.913 172.5C282.913 178.04 285.133 183.353 289.084 187.271C293.036 191.188 298.395 193.389 303.983 193.389H325.57V229.775H315.375C300.053 229.775 285.358 223.741 274.523 213C263.688 202.259 257.602 187.69 257.602 172.5C257.602 157.31 263.688 142.741 274.523 132C285.358 121.259 300.053 115.225 315.375 115.225H325.57V151.611ZM325.57 161.045V183.955H303.983C300.919 183.955 297.98 182.748 295.813 180.6C293.646 178.452 292.429 175.538 292.429 172.5C292.429 169.462 293.646 166.548 295.813 164.4C297.98 162.252 300.919 161.045 303.983 161.045H325.57ZM169.242 199.693C162.776 198.587 156.912 195.252 152.684 190.277C148.457 185.301 146.139 179.005 146.139 172.5C146.139 165.995 148.457 159.699 152.684 154.723C156.912 149.748 162.776 146.413 169.242 145.307V199.693ZM178.758 145.307C185.224 146.413 191.088 149.748 195.316 154.723C199.543 159.699 201.861 165.995 201.861 172.5C201.861 179.005 199.543 185.301 195.316 190.277C191.088 195.252 185.224 198.587 178.758 199.693V145.307ZM22.4297 161.045H44.0166C47.0811 161.045 50.02 162.252 52.187 164.4C54.3539 166.548 55.5713 169.462 55.5713 172.5C55.5713 175.538 54.3539 178.452 52.187 180.6C50.02 182.748 47.0811 183.955 44.0166 183.955H22.4297V161.045ZM22.4297 193.389H44.0166C49.6048 193.389 54.9641 191.188 58.9155 187.271C62.867 183.353 65.0869 178.04 65.0869 172.5C65.0869 166.96 62.867 161.647 58.9155 157.729C54.9641 153.812 49.6048 151.611 44.0166 151.611H22.4297V115.225H32.625C47.9424 115.241 62.6277 121.281 73.4587 132.018C84.2897 142.756 90.3819 157.315 90.3984 172.5C90.3884 187.687 84.2983 202.25 73.4659 212.989C62.6334 223.728 47.9444 229.765 32.625 229.775H22.4297V193.389ZM22.4297 239.209H32.625C50.4712 239.209 67.5864 232.181 80.2056 219.67C92.8247 207.16 99.9141 190.192 99.9141 172.5C99.9141 154.808 92.8247 137.84 80.2056 125.33C67.5864 112.819 50.4712 105.791 32.625 105.791H22.4297V69.9137H169.242V135.774C160.227 136.912 151.941 141.269 145.934 148.03C139.928 154.791 136.614 163.491 136.614 172.5C136.614 181.509 139.928 190.209 145.934 196.97C151.941 203.731 160.227 208.088 169.242 209.226V275.086H22.4297V239.209ZM178.758 275.086V209.226C187.773 208.088 196.059 203.731 202.066 196.97C208.072 190.209 211.386 181.509 211.386 172.5C211.386 163.491 208.072 154.791 202.066 148.03C196.059 141.269 187.773 136.912 178.758 135.774V69.9137H325.57V105.791H315.375C297.529 105.791 280.414 112.819 267.794 125.33C255.175 137.84 248.086 154.808 248.086 172.5C248.086 190.192 255.175 207.16 267.794 219.67C280.414 232.181 297.529 239.209 315.375 239.209H325.57V275.086H178.758Z" fill="#E1E1E1"/>
</svg>
