<svg width="221" height="221" viewBox="0 0 221 221" fill="none" xmlns="http://www.w3.org/2000/svg">
<g clip-path="url(#clip0)">
<path d="M189.01 89.1171C190.606 95.072 191.471 101.051 191.709 106.968L190.348 105.9C185.647 102.21 180.771 98.7932 175.757 95.6411C177.273 93.5518 178.897 91.5242 180.745 89.6634L187.156 83.1965C187.835 85.1342 188.469 87.0986 189.01 89.1171ZM130.539 189.204C118.355 192.34 106.086 192.539 94.4824 190.235C124.356 163.543 144.341 127.953 152 89.3672C157.402 91.7746 162.681 94.4775 167.823 97.4672C162.221 107.293 159.659 118.668 160.664 130.191L160.743 131.125C161.94 144.83 157.42 158.617 148.338 168.95L130.539 189.204ZM153.04 83.664C155.289 70.0867 156.012 56.1789 155.114 42.1926C167.958 50.6572 178.473 62.7332 184.919 77.457L176.746 85.7035C174.573 87.8959 172.6 90.2473 170.84 92.722C165.067 89.3541 159.132 86.3204 153.04 83.664ZM149.231 38.6649L149.291 39.3884C150.455 53.568 149.882 67.6861 147.701 81.4636C140.683 78.6794 133.516 76.3167 126.208 74.481C126.108 72.5745 125.829 70.6546 125.319 68.7502L124.477 65.6097C121.951 56.1802 114.87 48.8473 105.536 45.9937L75.0343 36.6643C79.4869 34.5365 84.1809 32.7663 89.1171 31.4437C110.144 25.8095 131.482 28.9845 149.231 38.6649ZM68.074 40.419L103.891 51.3727C111.357 53.6554 117.022 59.5214 119.044 67.0656L119.885 70.2061C120.151 71.1976 120.322 72.1942 120.446 73.1889C98.9071 68.5566 76.4614 68.005 54.326 71.9475L36.6819 75.0912C43.4656 60.9191 54.2817 48.7559 68.074 40.419ZM34.0277 81.2793L55.3149 77.4855C77.1218 73.5991 99.242 74.2292 120.43 78.9437C119.396 86.6689 114.397 93.6135 106.859 96.7776L105.749 97.2438C82.0903 107.17 63.4375 126.675 54.5703 150.752L49.4723 164.597C41.1807 155.364 34.8686 144.119 31.4437 131.337C26.8388 114.151 28.1235 96.7561 34.0277 81.2793ZM53.8058 169.099L59.8487 152.694C68.1782 130.078 85.7034 111.755 107.925 102.429L109.035 101.963C118.272 98.0872 124.455 89.6634 125.912 80.2351C132.96 82.0561 139.884 84.3588 146.647 87.092C139.157 126.197 118.649 162.195 87.7412 188.602C75.0392 184.936 63.366 178.231 53.8058 169.099ZM141.111 185.695L152.565 172.663C162.655 161.18 167.679 145.863 166.349 130.639L166.27 129.705C165.367 119.369 167.713 109.193 172.716 100.372C177.582 103.43 182.314 106.745 186.876 110.327L191.691 114.106C190.186 145.263 170.742 173.592 141.111 185.695Z" fill="#E1E1E1"/>
</g>
<defs>
<clipPath id="clip0">
<rect width="180" height="180" fill="white" transform="translate(0 46.5874) rotate(-15)"/>
</clipPath>
</defs>
</svg>
