<svg width="222" height="222" viewBox="0 0 222 222" fill="none" xmlns="http://www.w3.org/2000/svg">
<g clip-path="url(#clip0)">
<path d="M116.789 101.342C113.514 97.1943 110.761 92.5919 108.684 87.6016L108.191 86.4119C105.646 92.5067 104.991 99.4403 106.827 106.294C107.525 108.9 108.569 111.316 109.846 113.56C111.695 109.215 114.031 105.121 116.789 101.342Z" fill="#E1E1E1"/>
<path d="M120.419 96.8177C122.879 94.0331 125.583 91.4654 128.5 89.1581C128.432 88.9491 128.334 88.757 128.276 88.5424L127.741 86.543C126.521 81.9898 127.652 77.159 130.762 73.6205L136.238 67.3897C133.744 67.4262 131.219 67.73 128.704 68.4041C121.572 70.3149 115.697 74.5883 111.676 80.1499L113.877 85.4417C115.584 89.5412 117.81 93.3386 120.419 96.8177Z" fill="#E1E1E1"/>
<path d="M143.137 68.057L134.986 77.3312C133.121 79.4556 132.442 82.3542 133.174 85.0872L133.341 85.712C137.598 82.9613 142.197 80.707 147.072 79.0688L157.609 75.5261C153.547 71.8074 148.549 69.2158 143.137 68.057Z" fill="#E1E1E1"/>
<path d="M120.591 105.685C117.75 109.765 115.443 114.236 113.761 118.99C121.306 127.325 133.132 131.276 144.718 128.171C148.459 127.169 151.833 125.493 154.798 123.344C141.669 121.432 129.633 115.089 120.591 105.685Z" fill="#E1E1E1"/>
<path d="M142.275 98.9599C137.901 99.0341 133.973 97.175 131.3 94.1349C128.682 96.272 126.26 98.6446 124.062 101.211C133.294 111.115 146.153 117.421 160.012 118.255L160.293 118.27C162.369 115.815 164.032 113.046 165.261 110.082L163.789 108.423C158.338 102.27 150.495 98.8216 142.275 98.9599Z" fill="#E1E1E1"/>
<path d="M135.835 90.8032C137.415 92.418 139.618 93.3797 142 93.3383C151.616 93.1786 160.62 96.997 167.117 103.793C167.913 99.4306 167.816 94.8415 166.594 90.2803C165.579 86.4932 163.876 83.08 161.692 80.0897L148.864 84.4003C144.222 85.9588 139.859 88.1382 135.835 90.8032Z" fill="#E1E1E1"/>
<path d="M63.9841 33.3347L69.4175 31.8789L76.6967 59.0455L71.2634 60.5014L63.9841 33.3347Z" fill="#E1E1E1"/>
<path d="M82.2053 55.9623L91.9635 27.1429L97.292 28.9471L87.5339 57.7665L82.2053 55.9623Z" fill="#E1E1E1"/>
<path d="M179.982 75.046L172.981 76.9219C163.457 61.0545 143.828 52.7047 124.675 57.8366L95.9084 65.5447L96.6364 68.2613C97.0382 69.7609 96.1472 71.3041 94.6476 71.7059L72.9143 77.5293C71.4147 77.9312 69.8715 77.0402 69.4697 75.5406L68.7418 72.8239L19.8418 85.9267L22.7535 96.7933L39.0535 92.4257C40.0831 92.1499 41.1789 92.4794 41.8875 93.2766L49.3187 101.657L90.8813 98.9758C92.2184 98.8913 93.4297 99.7605 93.7769 101.056L95.794 108.584C101.187 128.712 119.725 142.086 139.871 140.388C152.653 139.31 164.119 132.758 171.321 122.417C176.252 115.336 178.776 107.057 178.841 98.6484L185.806 96.782C187.795 96.2492 189.483 95.1824 190.836 93.8184L192.695 100.757C197.913 120.23 186.314 140.319 166.841 145.537L58.1747 174.654C47.6884 177.463 41.4444 188.282 44.2535 198.766C47.0626 209.249 57.8794 215.497 68.3657 212.687L155.299 189.393C189.752 180.162 210.272 144.623 201.04 110.168L193.761 83.0009C192.153 76.9998 185.983 73.438 179.982 75.046ZM146.174 133.604C126.701 138.822 106.612 127.224 101.394 107.751C96.1762 88.2774 107.775 68.1886 127.248 62.9708C146.721 57.753 166.81 69.3513 172.027 88.8244C177.245 108.297 165.647 128.386 146.174 133.604ZM153.843 183.96L66.9098 207.254C59.42 209.261 51.6937 204.8 49.6869 197.31C47.68 189.82 52.1407 182.094 59.6305 180.087L168.297 150.97C182.611 147.134 193.238 136.338 197.508 123.195C199.249 150.678 181.444 176.564 153.843 183.96Z" fill="#E1E1E1"/>
</g>
<defs>
<clipPath id="clip0">
<rect width="180" height="180" fill="white" transform="translate(0.772949 47.3604) rotate(-15)"/>
</clipPath>
</defs>
</svg>
