<svg width="294" height="294" viewBox="0 0 294 294" fill="none" xmlns="http://www.w3.org/2000/svg">
<g clip-path="url(#clip0)">
<path d="M203.419 257.545L204.06 258.656C205.047 260.365 205.321 262.442 204.811 264.347L202.134 274.337L144.178 258.808L146.855 248.818C147.365 246.912 148.641 245.251 150.35 244.265L151.461 243.623C154.882 241.651 157.429 238.331 158.451 234.517L162.701 218.659L167.081 219.017C166.873 227.471 172.401 235.312 180.92 237.595C189.44 239.877 198.147 235.851 202.195 228.426L206.167 230.306L201.918 246.164C200.896 249.978 201.442 254.127 203.419 257.545ZM195.003 225.839C192.377 229.642 187.578 231.614 182.862 230.35C178.145 229.086 174.975 224.98 174.603 220.373L195.003 225.839ZM234.353 197.56C233.282 201.555 229.163 203.934 225.167 202.863L224.954 202.806C225.407 201.65 225.81 200.465 226.138 199.241L229.05 188.374C233.045 189.445 235.423 193.564 234.353 197.56ZM191.666 139.535L220.644 147.299C226.635 148.904 230.205 155.086 228.599 161.077L222.075 185.426C220.257 183.592 219.409 180.888 220.124 178.218L220.68 176.142C222.515 169.296 218.439 162.237 211.593 160.403C209.681 159.891 207.636 159.828 205.69 160.223L201.417 161.1L198.152 158.203C196.664 156.888 194.866 155.921 192.953 155.408C186.107 153.574 179.048 157.65 177.214 164.496L176.657 166.571C175.942 169.241 173.856 171.159 171.364 171.838L177.888 147.489C179.493 141.498 185.675 137.929 191.666 139.535ZM159.967 185.393C155.972 184.322 153.594 180.202 154.664 176.207C155.735 172.212 159.854 169.833 163.85 170.904L160.938 181.771C160.61 182.995 160.366 184.222 160.181 185.45L159.967 185.393ZM168.182 183.712L169.291 179.575C175.958 179.626 182.098 175.246 183.902 168.512L184.458 166.437C185.222 163.586 188.161 161.889 191.012 162.653C191.812 162.867 192.559 163.269 193.181 163.816L197.845 167.955C198.726 168.738 199.929 169.06 201.087 168.823L207.192 167.571C208.005 167.404 208.855 167.434 209.656 167.648C212.503 168.411 214.2 171.351 213.436 174.201L212.88 176.277C211.075 183.011 214.202 189.874 220.002 193.163L218.893 197.3C215.148 211.278 200.722 219.607 186.744 215.861C172.766 212.116 164.437 197.69 168.182 183.712ZM121.016 229.339L115.2 251.043L100.711 247.161L103.388 237.171C104.41 233.357 103.864 229.208 101.888 225.79L101.246 224.678C100.26 222.97 99.9854 220.893 100.496 218.988L104.392 204.448L110.922 207.533C119.115 211.41 123.363 220.58 121.016 229.339ZM42.7948 214.506C46.2155 212.534 48.7628 209.214 49.7848 205.4L54.034 189.542L58.4142 189.9C58.2065 198.354 63.7344 206.195 72.2538 208.477C80.7733 210.76 89.4808 206.734 93.528 199.309L97.5006 201.188L93.2515 217.047C92.2295 220.861 92.7755 225.01 94.7519 228.428L95.3936 229.539C96.3801 231.248 96.6544 233.324 96.1439 235.23L93.467 245.22L35.5115 229.691L38.1883 219.701C38.6988 217.795 39.9748 216.134 41.6833 215.147L42.7948 214.506ZM86.3363 196.722C83.7099 200.525 78.9111 202.497 74.195 201.233C69.4788 199.969 66.3087 195.863 65.9359 191.255L86.3363 196.722ZM125.686 168.443C124.616 172.438 120.496 174.816 116.501 173.746L116.287 173.689C116.74 172.533 117.143 171.348 117.471 170.124L120.383 159.257C124.378 160.328 126.757 164.447 125.686 168.443ZM82.9998 110.417L111.978 118.182C117.969 119.787 121.538 125.969 119.933 131.96L113.408 156.309C111.59 154.475 110.742 151.77 111.457 149.101L112.014 147.025C113.848 140.179 109.772 133.12 102.926 131.286C101.014 130.773 98.9691 130.711 97.0231 131.106L92.7504 131.983L89.4853 129.086C87.9974 127.771 86.199 126.804 84.2864 126.291C77.4404 124.457 70.3813 128.532 68.5469 135.378L67.9908 137.454C67.2755 140.124 65.1893 142.041 62.6972 142.721L69.2214 118.372C70.8268 112.381 77.0087 108.812 82.9998 110.417ZM51.3007 156.276C47.3054 155.205 44.9269 151.085 45.9974 147.09C47.0679 143.095 51.1877 140.716 55.183 141.787L52.2713 152.653C51.9432 153.878 51.6997 155.105 51.5144 156.333L51.3007 156.276ZM59.5157 154.595L60.6241 150.458C67.2918 150.509 73.4309 146.129 75.2352 139.395L75.7914 137.32C76.5552 134.469 79.4946 132.772 82.3453 133.536C83.1458 133.75 83.8922 134.152 84.5143 134.699L89.1784 138.837C90.0594 139.621 91.262 139.943 92.4203 139.706L98.5251 138.453C99.3383 138.287 100.188 138.317 100.989 138.531C103.836 139.294 105.533 142.234 104.769 145.084L104.213 147.16C102.409 153.893 105.535 160.756 111.335 164.046L110.227 168.183C106.481 182.161 92.0554 190.49 78.0773 186.744C64.0991 182.999 55.7703 168.573 59.5157 154.595ZM19.5938 202.163C21.9407 193.404 30.2044 187.586 39.2383 188.326L46.4372 188.915L42.5413 203.455C42.0308 205.36 40.7548 207.022 39.0463 208.008L37.9349 208.65C34.5132 210.625 31.9659 213.945 30.9439 217.759L28.267 227.749L13.7782 223.867L19.5938 202.163ZM128.26 231.28C130.607 222.521 138.871 216.703 147.905 217.443L155.104 218.032L151.208 232.572C150.697 234.477 149.422 236.139 147.713 237.125L146.602 237.767C143.18 239.742 140.633 243.062 139.611 246.877L136.934 256.867L122.445 252.984L128.26 231.28ZM223.867 280.16L209.378 276.278L212.055 266.288C213.077 262.474 212.531 258.325 210.554 254.907L209.913 253.795C208.926 252.087 208.652 250.01 209.163 248.105L213.058 233.565L219.589 236.65C227.782 240.527 232.03 249.697 229.683 258.456L223.867 280.16Z" fill="#E1E1E1"/>
<path d="M124.139 90.3706C129.25 86.0021 134.894 82.3821 140.894 79.564C145.066 96.4516 154.735 111.8 168.62 122.761C163.764 123.265 158.751 122.95 153.763 121.614C138.315 117.474 127.293 105.029 124.139 90.3706ZM178.351 120.566L178.037 120.361C162.587 110.157 151.946 94.3041 147.886 76.7126C152.135 75.2113 156.512 74.0897 160.961 73.3677C162.016 78.6586 165.317 83.4215 170.413 86.2507C179.997 91.575 186.753 100.785 188.954 111.523L189.549 114.419C186.152 117.026 182.382 119.114 178.351 120.566ZM195.879 108.398C192.908 96.2149 185.053 85.802 173.849 79.5854C171.068 78.0404 169.17 75.4588 168.422 72.5444C174.84 72.1485 181.335 72.5415 187.732 73.8362L205.42 77.4112C205.945 82.3193 205.637 87.3963 204.284 92.4457C202.654 98.5274 199.707 103.891 195.879 108.398ZM203.745 69.4191L189.212 66.484C182.496 65.1229 175.681 64.6636 168.932 65.0021L169.156 64.169C170.131 60.5287 172.844 57.6335 176.417 56.4246L192.013 51.15C197.49 56.0923 201.534 62.4168 203.745 69.4191ZM184.493 45.7731L174.016 49.3173C168.061 51.332 163.538 56.157 161.911 62.2279L161.197 64.8938C161.12 65.18 161.105 65.4672 161.044 65.7536C156.138 66.4734 151.308 67.6365 146.611 69.2121C145.917 63.4552 145.879 57.5864 146.643 51.7194L147.626 44.1405C155.975 40.3949 165.608 39.3772 175.116 41.9249C178.47 42.8237 181.588 44.156 184.493 45.7731ZM139.425 49.0437L139.205 50.7474C138.276 57.8943 138.387 65.0441 139.403 72.0171C133.7 74.5382 128.272 77.7116 123.237 81.4947C123.257 78.0566 123.664 74.5668 124.595 71.0931C127.045 61.9506 132.424 54.381 139.425 49.0437Z" fill="#E1E1E1"/>
</g>
<defs>
<clipPath id="clip0">
<rect width="240" height="240" fill="white" transform="translate(62.1165) rotate(15)"/>
</clipPath>
</defs>
</svg>
