<svg width="222" height="222" viewBox="0 0 222 222" fill="none" xmlns="http://www.w3.org/2000/svg">
<g clip-path="url(#clip0)">
<path d="M113.522 98.6774C113.119 97.1751 114.008 95.6354 115.51 95.2328C117.013 94.8303 118.552 95.7192 118.955 97.2215C119.904 100.764 122.985 103.176 126.448 103.451L124.388 95.7657C123.184 91.2723 118.548 88.5955 114.054 89.7995L97.7545 94.167C93.2611 95.371 90.5843 100.007 91.7883 104.501L93.9721 112.651L102.122 110.467C107.487 109.029 114.534 102.456 113.522 98.6774Z" fill="#E1E1E1"/>
<path d="M124.05 116.238L121.864 108.08C120.239 107.424 118.744 106.474 117.463 105.268C114.377 110.456 107.957 114.727 103.578 115.901L100.861 116.628L102.317 122.062C103.923 128.055 110.103 131.623 116.096 130.017C122.088 128.411 125.656 122.231 124.05 116.238Z" fill="#E1E1E1"/>
<path d="M129.484 114.782L132.2 114.054C133.7 113.653 134.591 112.109 134.189 110.61C133.787 109.11 132.244 108.219 130.745 108.621L128.028 109.349L129.484 114.782Z" fill="#E1E1E1"/>
<path d="M90.7226 122.257C91.1244 123.756 92.6676 124.647 94.1672 124.245L96.8838 123.518L95.428 118.084L92.7113 118.812C91.2117 119.214 90.3207 120.757 90.7226 122.257Z" fill="#E1E1E1"/>
<path d="M115.563 138.895C115.964 140.394 117.508 141.285 119.007 140.883C120.507 140.481 121.398 138.938 120.996 137.439L120.268 134.722L114.835 136.178L115.563 138.895Z" fill="#E1E1E1"/>
<path d="M95.9279 152.55L98.9248 163.735L104.358 162.279L102.174 154.129C101.981 153.406 102.081 152.64 102.456 151.995L103.862 149.56L101.775 141.774L99.4301 143.322C96.3925 145.33 94.9867 149.038 95.9279 152.55Z" fill="#E1E1E1"/>
<path d="M87.1733 32.9446L92.6067 31.4887L104.254 74.9554L98.8202 76.4112L87.1733 32.9446Z" fill="#E1E1E1"/>
<path d="M137.181 133.207L134.375 133.039L136.462 140.825L138.897 142.231C139.544 142.602 140.014 143.215 140.208 143.938L142.391 152.088L147.825 150.632L144.828 139.448C143.887 135.935 140.815 133.427 137.181 133.207Z" fill="#E1E1E1"/>
<path d="M131.33 143.405L128.457 132.685L127.978 132.656L125.701 133.266L126.429 135.983C127.633 140.476 124.956 145.113 120.463 146.317C115.97 147.521 111.333 144.844 110.129 140.35L109.401 137.634L107.125 138.244L106.724 138.508L109.596 149.228C109.79 149.951 109.69 150.717 109.315 151.362L107.909 153.798L109.791 160.823L136.958 153.544L135.076 146.518L132.64 145.112C131.994 144.741 131.523 144.128 131.33 143.405Z" fill="#E1E1E1"/>
<path d="M132.681 61.5149L108.231 68.0662L109.687 73.4996L115.12 72.0437L116.576 77.477L89.4094 84.7563L87.9536 79.323L93.3869 77.8671L91.9311 72.4338L67.4811 78.9852C62.9877 80.1892 60.3108 84.8256 61.5148 89.3189L89.1761 192.552C90.3801 197.046 95.0165 199.722 99.5099 198.518L164.71 181.048C169.203 179.844 171.88 175.208 170.676 170.714L143.015 67.4811C141.811 62.9877 137.174 60.3109 132.681 61.5149ZM130.654 184.35L100.771 192.357L99.3149 186.924L129.198 178.917L130.654 184.35ZM127.742 173.483L97.859 181.491L96.4031 176.057L126.286 168.05L127.742 173.483ZM153.986 151.893C154.389 153.395 153.5 154.935 151.997 155.337L97.664 169.896C96.1616 170.299 94.6219 169.41 94.2194 167.907L90.4946 154.006C88.9259 148.152 91.2704 141.971 96.3303 138.632L104.225 133.421C102.293 132.21 100.61 130.611 99.2912 128.699L95.6237 129.682C91.1303 130.886 86.4939 128.209 85.2899 123.715C84.3421 120.178 85.8207 116.579 88.6734 114.609L86.3549 105.957C84.348 98.4669 88.8088 90.7407 96.2986 88.7338L112.599 84.3662C120.088 82.3593 127.815 86.8201 129.822 94.3099L132.139 102.96C135.595 103.239 138.675 105.617 139.622 109.154C140.826 113.647 138.15 118.284 133.656 119.488L129.989 120.471C129.803 122.788 129.145 125.015 128.077 127.028L137.52 127.593C143.572 127.957 148.693 132.137 150.261 137.992L153.986 151.893Z" fill="#E1E1E1"/>
</g>
<defs>
<clipPath id="clip0">
<rect width="180" height="180" fill="white" transform="translate(0.772949 47.3604) rotate(-15)"/>
</clipPath>
</defs>
</svg>
