<svg width="270" height="270" viewBox="0 0 270 270" fill="none" xmlns="http://www.w3.org/2000/svg">
<g clip-path="url(#clip0)">
<path d="M110.322 151.38C115.127 149.853 120.056 148.746 125.052 148.007C124.928 146.027 125.119 143.996 125.659 141.984C127.493 135.137 132.946 130.008 139.881 128.588L144.972 127.547C142.553 126.44 140.044 125.472 137.391 124.761C126.304 121.79 115.076 122.974 105.335 127.332L109.847 149.37C109.985 150.048 110.168 150.709 110.322 151.38Z" fill="#E1E1E1"/>
<path d="M132.299 143.763C131.987 144.929 131.876 146.102 131.92 147.252C140.543 146.627 149.294 147.157 157.916 149.008L168.726 151.335C165.408 144.051 160.277 137.644 153.777 132.764L141.262 135.325C136.891 136.218 133.455 139.45 132.299 143.763Z" fill="#E1E1E1"/>
<path d="M103.819 153.737C103.579 152.744 103.317 151.756 103.113 150.751L99.0257 130.784C91.9301 135.324 85.9813 141.68 82.0306 149.465C86.5836 151.532 90.3581 154.817 93.1274 158.826C96.5851 156.906 100.155 155.204 103.819 153.737Z" fill="#E1E1E1"/>
<path d="M142.729 104.839C143.851 105.139 144.914 105.545 146.004 105.898L147.829 99.0875L141.188 97.3081L139.363 104.118C140.484 104.358 141.607 104.538 142.729 104.839Z" fill="#E1E1E1"/>
<path d="M79.4044 155.84C79.0711 156.818 78.7206 157.781 78.4501 158.791C77.4172 162.646 76.9435 166.512 76.8692 170.335C80.1525 167.432 83.6232 164.785 87.2555 162.399C85.2512 159.613 82.5846 157.333 79.4044 155.84Z" fill="#E1E1E1"/>
<path d="M116.405 83.5498L176.171 99.5642C178.004 100.055 179.89 98.9664 180.381 97.1335L193.727 47.328L127.319 29.5342L113.974 79.3397C113.483 81.1726 114.572 83.0587 116.405 83.5498ZM132.535 50.9214C133.379 49.8166 134.811 49.3354 136.152 49.6948L147.382 52.7037L156.173 42.7922C157.905 40.8435 161.587 41.8302 162.113 44.3839L164.767 57.3621L175.997 60.3711C177.338 60.7305 178.337 61.863 178.516 63.2418C178.698 64.6215 178.03 65.9728 176.826 66.668L165.879 72.9877L165.671 85.2132C165.65 86.5562 164.85 87.7618 163.62 88.3006C162.889 88.6243 162.089 88.6734 161.349 88.475C160.844 88.3398 160.364 88.0866 159.958 87.7287L149.742 78.6673L136.364 81.4032C135.052 81.6672 133.698 81.1549 132.903 80.0701C132.107 78.9886 132.022 77.5421 132.67 76.3706L138.603 65.6789L132.283 54.7328C131.591 53.5296 131.688 52.0253 132.535 50.9214Z" fill="#E1E1E1"/>
<path d="M145.56 67.312L142.307 73.17L150.048 71.5892C150.576 71.478 151.118 71.4988 151.626 71.6349C152.134 71.7711 152.614 72.0243 153.017 72.3813L158.93 77.6205L159.042 70.9209C159.06 69.7121 159.715 68.6066 160.759 68.0038L166.202 64.8643L160.936 63.4532C159.677 63.116 158.719 62.0976 158.456 60.8208L156.754 52.4963L151.118 58.8546C150.252 59.8289 148.913 60.2317 147.654 59.8945L142.388 58.4834L145.531 63.927C146.134 64.9711 146.149 66.2563 145.56 67.312Z" fill="#E1E1E1"/>
<path d="M171.409 158.947L156.466 155.733C149.137 154.158 141.704 153.582 134.357 153.948C135.198 155.031 136.225 155.993 137.453 156.749C151.162 165.22 161.875 178.073 167.841 193.024C169.325 190.101 170.54 186.989 171.421 183.702C173.674 175.291 173.505 166.811 171.409 158.947Z" fill="#E1E1E1"/>
<path d="M140.95 111.479C107.995 102.649 73.9989 122.277 65.1687 155.232C56.3385 188.186 75.9662 222.182 108.921 231.013C141.876 239.843 175.872 220.215 184.702 187.26C193.532 154.306 173.904 120.309 140.95 111.479ZM110.7 224.372C81.408 216.523 63.9606 186.303 71.8094 157.011C79.6583 127.719 109.878 110.271 139.17 118.12C168.463 125.969 185.91 156.189 178.061 185.481C170.212 214.773 139.993 232.221 110.7 224.372Z" fill="#E1E1E1"/>
<path d="M133.847 162.598C130.677 160.642 128.319 157.861 126.823 154.691C121.838 155.381 116.923 156.484 112.142 158.017C119.174 179.916 135.137 198.066 156.233 207.764C158.836 205.54 161.199 203.028 163.294 200.269L162.023 196.871C156.712 182.718 146.707 170.546 133.847 162.598Z" fill="#E1E1E1"/>
<path d="M105.677 160.402C102.474 161.718 99.3482 163.223 96.317 164.919C97.2122 167.369 97.8074 169.956 97.9687 172.661C98.5551 182.413 101.04 191.812 105.357 200.591L113.943 218.048C126.644 221.035 139.427 218.674 149.859 212.345C128.822 201.54 112.948 182.781 105.677 160.402Z" fill="#E1E1E1"/>
<path d="M91.1109 173.072C91.0176 171.535 90.6996 170.065 90.2868 168.631C85.7283 171.698 81.4507 175.217 77.517 179.167C80.113 194.567 90.1313 208.113 104.72 214.869L99.1889 203.622C94.4675 194.015 91.7479 183.738 91.1109 173.072Z" fill="#E1E1E1"/>
</g>
<defs>
<clipPath id="clip0">
<rect width="220" height="220" fill="white" transform="translate(56.9402) rotate(15)"/>
</clipPath>
</defs>
</svg>
