<svg width="270" height="270" viewBox="0 0 270 270" fill="none" xmlns="http://www.w3.org/2000/svg">
<g clip-path="url(#clip0)">
<path d="M180.62 186.481C178.784 186.973 176.901 185.883 176.41 184.051L163.954 137.565L110.828 151.801L124.173 201.606C124.665 203.439 123.579 205.324 121.743 205.816L65.2964 220.941L74.1933 254.145L246.853 207.881L237.066 171.357L180.62 186.481ZM115.579 235.938C116.07 237.771 114.984 239.656 113.148 240.148L93.2259 245.486L91.4465 238.845L108.048 234.397L107.159 231.076L97.1976 233.746L95.4182 227.105L105.379 224.436L104.49 221.115L87.8877 225.564L86.1084 218.923L106.031 213.585C107.867 213.093 109.75 214.183 110.241 216.016L115.579 235.938ZM148.719 173.677L142.078 175.456L134.96 148.893L141.601 147.114L148.719 173.677ZM222.482 196.617C222.973 198.45 221.887 200.335 220.051 200.827L206.77 204.386L207.659 207.706L224.261 203.258L226.041 209.898L206.118 215.237C204.282 215.729 202.4 214.639 201.908 212.806L199.239 202.845C198.748 201.012 199.834 199.127 201.67 198.635L214.952 195.076L214.062 191.756L197.46 196.204L195.681 189.563L215.603 184.225C217.439 183.733 219.322 184.823 219.813 186.656L222.482 196.617Z" fill="#E1E1E1"/>
<path d="M169.426 82.3229C156.783 72.3545 141.079 66.58 124.972 66.1022C123.53 66.0581 122.16 65.7385 120.889 65.2212C127.07 61.234 133.794 58.0124 140.929 55.7127L155.474 51.0254C161.221 56.788 165.608 64.0503 167.862 72.4608C168.743 75.748 169.247 79.0506 169.426 82.3229ZM166.737 100.898C143.622 103.045 120.721 95.3129 103.68 79.861C107.053 76.1387 110.759 72.7293 114.732 69.6398C117.612 71.6368 121.045 72.8665 124.772 72.978C139.885 73.4267 154.633 78.9663 166.308 88.5749L169.106 90.8784C168.67 94.312 167.881 97.6731 166.737 100.898ZM149.346 45.7811L138.821 49.1742C130.428 51.8786 122.584 55.7953 115.429 60.6486C114.814 59.6675 114.325 58.5992 114.013 57.4338C112.858 53.1239 114.217 48.6067 117.555 45.6446L127.113 37.1689C135.18 38.1496 142.827 41.1329 149.346 45.7811ZM116.879 37.0533L112.991 40.5008C107.696 45.201 105.538 52.3699 107.372 59.2131C107.911 61.2253 108.76 63.0796 109.859 64.7355C105.901 67.8706 102.186 71.2968 98.7891 75.0219C98.3195 74.5179 97.8311 74.0366 97.3722 73.519L82.4452 56.6857C88.7019 48.0412 97.8341 41.402 108.921 38.4313C111.574 37.7204 114.231 37.3038 116.879 37.0533ZM78.7037 62.8306L92.2274 78.0791C92.9065 78.8473 93.6266 79.569 94.3312 80.3126C91.8919 83.4146 89.6512 86.6734 87.6179 90.0688C83.2109 87.9791 78.3027 87.0202 73.3262 87.5067C72.8561 78.7927 74.8288 70.3103 78.7037 62.8306ZM74.8913 97.3721C74.6209 96.3627 74.443 95.3535 74.2425 94.3396C77.742 94.0389 81.1924 94.6838 84.3205 96.0912C82.3712 99.9729 80.6887 104 79.2936 108.157C77.4471 104.812 75.9243 101.227 74.8913 97.3721ZM84.2682 115.486C85.7001 110.099 87.6449 104.912 90.0592 99.977C91.134 101.013 92.1475 102.126 92.9937 103.411C98.8823 112.332 106.376 119.872 115.26 125.826L125.674 132.805C109.669 134.246 94.2199 127.524 84.2682 115.486ZM135.257 130.942L119.092 120.113C110.965 114.671 104.118 107.78 98.7293 99.6219C97.2379 97.3631 95.4283 95.4174 93.4248 93.7442C95.2015 90.7592 97.1571 87.8971 99.2722 85.1524C116.759 100.901 139.888 109.206 163.506 108.045C157.635 118.739 147.747 127.179 135.257 130.942Z" fill="#E1E1E1"/>
</g>
<defs>
<clipPath id="clip0">
<rect width="220" height="220" fill="white" transform="translate(0 56.9402) rotate(-15)"/>
</clipPath>
</defs>
</svg>
